<svg xmlns="http://www.w3.org/2000/svg" viewBox="0 0 128 67" role="img" aria-label="MP">
<title>MP</title>
<defs>
<linearGradient id="mp-g1" gradientUnits="userSpaceOnUse" x1="28.17" y1="0.00" x2="48.91" y2="5.53"><stop offset="0" stop-color="#1A9CAD"/><stop offset="1" stop-color="#123352"/></linearGradient>
<linearGradient id="mp-g2" gradientUnits="userSpaceOnUse" x1="66.67" y1="0.00" x2="87.41" y2="5.53"><stop offset="0" stop-color="#1A9CAD"/><stop offset="1" stop-color="#123352"/></linearGradient>
<filter id="mp-sh" x="-100%" y="-100%" width="300%" height="300%" color-interpolation-filters="sRGB">
<feGaussianBlur stdDeviation="6"/>
<feComponentTransfer><feFuncA type="linear" slope="1.6"/></feComponentTransfer>
</filter>
<clipPath id="mp-bowl"><path clip-rule="evenodd" d="M77 25.5C77 13.959 84.752 3.856 95.9 0.869C107.048 -2.118 118.813 2.755 124.584 12.75C130.354 22.745 128.692 35.37 120.531 43.531C112.37 51.692 99.745 53.354 89.75 47.584L89.75 53.25C89.75 60.292 84.042 66 77 66L77 25.5ZM115.25 25.5C115.25 32.542 109.542 38.25 102.5 38.25C95.458 38.25 89.75 32.542 89.75 25.5C89.75 18.458 95.458 12.75 102.5 12.75C109.542 12.75 115.25 18.458 115.25 25.5Z"/></clipPath>
<clipPath id="mp-right"><rect x="89.75" y="0" width="38.25" height="67"/></clipPath>
</defs>
<g fill-rule="evenodd">
<path fill="url(#mp-g1)" d="M0 38.25C0 45.292 5.708 51 12.75 51L12.75 25.5C12.75 18.458 18.458 12.75 25.5 12.75C32.542 12.75 38.25 18.458 38.25 25.5L38.25 38.25C38.25 45.292 43.958 51 51 51L51 25.5C51 11.417 39.583 0 25.5 0C11.417 -0 0 11.417 0 25.5L0 38.25Z"/>
<path fill="url(#mp-g2)" d="M38.5 38.25C38.5 45.292 44.208 51 51.25 51L51.25 25.5C51.25 18.458 56.958 12.75 64 12.75C71.042 12.75 76.75 18.458 76.75 25.5L76.75 38.25C76.75 45.292 82.458 51 89.5 51L89.5 25.5C89.5 11.417 78.083 0 64 0C49.917 -0 38.5 11.417 38.5 25.5L38.5 38.25Z"/>
<path fill="#1A9CAD" d="M77 25.5C77 13.959 84.752 3.856 95.9 0.869C107.048 -2.118 118.813 2.755 124.584 12.75C130.354 22.745 128.692 35.37 120.531 43.531C112.37 51.692 99.745 53.354 89.75 47.584L89.75 53.25C89.75 60.292 84.042 66 77 66L77 25.5ZM115.25 25.5C115.25 32.542 109.542 38.25 102.5 38.25C95.458 38.25 89.75 32.542 89.75 25.5C89.75 18.458 95.458 12.75 102.5 12.75C109.542 12.75 115.25 18.458 115.25 25.5Z"/>
<g clip-path="url(#mp-bowl)"><g clip-path="url(#mp-right)">
<rect x="77" y="30" width="12.75" height="36" fill="#123352" filter="url(#mp-sh)"/>
</g></g>
</g>
</svg>
